<svg xmlns="http://www.w3.org/2000/svg" viewBox="0 0 32 32" width="32" height="32" shape-rendering="geometricPrecision" text-rendering="geometricPrecision" image-rendering="optimizeQuality" fill-rule="evenodd" clip-rule="evenodd">
  <path d="M12 0C5.37 0 0 5.37 0 12c0 6.63 5.37 12 12 12s12-5.37 12-12S18.63 0 12 0zm5.5 17.3c-.3.5-.7.8-1.2.8-.3 0-.6-.1-.8-.3-3.1-1.9-7-2.3-11.6-1.3-.4.1-.8-.2-.9-.6s.2-.8.6-.9c5.1-1.2 9.5-.7 13 1.5.5.3.7.9.4 1.4zm1.5-3.3c-.4.6-1.2.9-1.9.5-3.6-2.2-9.1-2.8-13.4-1.5-.7.2-1.4-.2-1.6-.9-.2-.7.2-1.4.9-1.6 4.7-1.4 10.4-.7 14.4 1.7.7.4.9 1.2.5 1.9zm.1-3.6c-4.3-2.6-11.4-2.9-15.5-1.6-.7.2-1.5-.2-1.7-.9s.2-1.5.9-1.7c4.7-1.4 12.5-1 17.3 1.7.6.4.8 1.2.4 1.9-.3.6-1.2.8-1.9.5z" fill="white" fill-rule="nonzero"/>
</svg>
